# xmcd
#
# Track frame offsets: 
#        150
#        15030
#        31937
#        49093
#        63458
#        80983
#        96533
#        113515
#        129433
#        146400
#        162925
#        182168
#        263975
#
# Disc length: 4280 seconds
#
# Revision: 4
# Processed by: cddbd v1.5.2PL0 Copyright (c) Steve Scherf et al.
# Submitted via: ExactAudioCopyFreeDBPlugin 1.0
#
DISCID=ab10b60d
DTITLE=DJ Bobo - Celebration - Limited Edition CD2
DYEAR=2002
DGENRE=Dance
TTITLE0=Colors Of Life (Pure Mix)
TTITLE1=Take Control (New Version)
TTITLE2=Radio Gaga (Queen Dance Traxx Featuring D.j. Bobo)
TTITLE3=Celebrate (Latin Version)
TTITLE4=Come Take My Hand (The New Atlantis Version)
TTITLE5=Love Is All Around (Uk Radio Version)
TTITLE6=Lies (Video Version)
TTITLE7=Keep On Dancing (New Version)
TTITLE8=I´ll Be There (Single Version From Spain)
TTITLE9=Hard To Say I´m Sorry (Video Version)
TTITLE10=Nightfly
TTITLE11=B&b Megamix
TTITLE12=Data Track
EXTD=YEAR: 2002 ID3G: 3
EXTT0=
EXTT1=
EXTT2=
EXTT3=
EXTT4=
EXTT5=
EXTT6=
EXTT7=
EXTT8=
EXTT9=
EXTT10=
EXTT11=
EXTT12=
PLAYORDER=
